<svg xmlns="http://www.w3.org/2000/svg" xmlns:ev="http://www.w3.org/2001/xml-events" xmlns:xlink="http://www.w3.org/1999/xlink" width="449.241" height="581.634" class="st9" color-interpolation-filters="sRGB" viewBox="0 0 336.93 436.225" xml:space="preserve"><style type="text/css">.st1{fill:#fff;stroke:#000;stroke-linecap:round;stroke-linejoin:round;stroke-width:3}.st2{fill:#000;font-family:Calibri;font-size:1.99999em}.st3,.st4{stroke:#000;stroke-linecap:round;stroke-linejoin:round;stroke-width:3}.st4{stroke-dasharray:9,9}.st5{fill:#fff;stroke:none;stroke-linecap:butt;stroke-width:7.2}.st6{fill:#000;font-family:Calibri;font-size:1.00001em}.st7{fill:none;stroke:none;stroke-linecap:round;stroke-linejoin:round;stroke-width:.75}.st8{font-size:1em}.st9{fill:none;fill-rule:evenodd;font-size:12px;overflow:visible;stroke-linecap:square;stroke-miterlimit:3}</style><g><title>Page-1</title><g id="shape1-1" transform="translate(69.1063,-161.232)"><title>Rectangle</title><desc>dp1</desc><rect width="113.386" height="85.039" x="0" y="351.186" class="st1"/><text x="38" y="400.91" class="st2">dp1</text></g><g id="shape2-4" transform="translate(19.5,-19.5)"><title>Rectangle.2</title><desc>H1</desc><rect width="99.213" height="85.039" x="0" y="351.186" class="st1"/><text x="36.05" y="400.91" class="st2">H1</text></g><g id="shape4-7" transform="translate(132.886,-19.5)"><title>Rectangle.4</title><desc>H2</desc><rect width="99.213" height="85.039" x="0" y="351.186" class="st1"/><text x="36.05" y="400.91" class="st2">H2</text></g><g id="shape8-10" transform="translate(506.48,380.793) rotate(104.036)"><title>Sheet.8</title><path d="M0 436.23 L58.44 436.23" class="st3"/></g><g id="shape9-13" transform="translate(591.52,169.193) rotate(75.9638)"><title>Sheet.9</title><path d="M0 436.23 L58.44 436.23" class="st3"/></g><g id="shape10-16" transform="translate(69.1063,-331.311)"><title>Rectangle.10</title><desc>Faucet</desc><rect width="113.386" height="85.039" x="0" y="351.186" class="st1"/><text x="24.06" y="400.91" class="st2">Faucet</text></g><g id="shape15-19" transform="translate(519.505,104.914) rotate(90)"><title>Sheet.15</title><desc>Controlplane</desc><path d="M0 436.23 L85.04 436.23" class="st4"/><rect width="63.399" height="14.4" x="-467.925" y="35.32" class="st5" transform="rotate(-90)"/><text x="-467.92" y="46.12" class="st6" transform="rotate(-90)">Controlplane</text></g><g id="shape16-24" transform="translate(604.544,104.914) rotate(90)"><title>Sheet.16</title><desc>Dataplane</desc><path d="M0 436.23 L85.04 436.23" class="st3"/><rect width="49.981" height="14.4" x="-461.216" y="35.32" class="st5" transform="rotate(-90)"/><text x="-461.22" y="46.12" class="st6" transform="rotate(-90)">Dataplane</text></g><g id="shape22-29" transform="translate(219.343,-332.811)"><title>Sheet.22</title><desc>dps: dp1: nfv_intf: eth1 nfv_sw_port: 4 ...</desc><rect width="99.213" height="85.039" x="0" y="351.186" class="st7"/><text x="4" y="365.99" class="st6">dps:<tspan x="4" class="st8" dy="1.2em"> </tspan>dp1:<tspan x="4" class="st8" dy="1.2em"> </tspan>nfv_intf: eth1<tspan x="4" class="st8" dy="1.2em"> </tspan>nfv_sw_port: 4<tspan x="4" class="st8" dy="1.2em"> </tspan>...</text></g><g id="shape24-36" transform="translate(74.2795,-161.232)"><title>Sheet.24</title><desc>1</desc><rect width="18" height="21.26" x="0" y="414.966" class="st7"/><text x="5.96" y="429.2" class="st6">1</text></g><g id="shape25-39" transform="translate(159.319,-161.232)"><title>Sheet.25</title><desc>2</desc><rect width="18" height="21.26" x="0" y="414.966" class="st7"/><text x="5.96" y="429.2" class="st6">2</text></g><g id="shape26-42" transform="translate(159.319,-225.012)"><title>Sheet.26</title><desc>4</desc><rect width="18" height="21.26" x="0" y="414.966" class="st7"/><text x="5.96" y="429.2" class="st6">4</text></g><g id="shape30-45" transform="translate(149.894,-331.311)"><title>Sheet.30</title><desc>eth1</desc><rect width="36.85" height="20.472" x="0" y="415.753" class="st7"/><text x="7.24" y="429.59" class="st6">eth1</text></g></g></svg>